<mxfile host="app.diagrams.net" modified="2024-05-22T03:52:46.846Z" agent="Mozilla/5.0 (Windows NT 10.0; Win64; x64) AppleWebKit/537.36 (KHTML, like Gecko) Chrome/125.0.0.0 Safari/537.36 Edg/125.0.0.0" etag="WHs82OuUs_J2E38Dfbsz" version="24.4.4" type="github">
  <diagram name="第 1 页" id="oT-IUX3YpCUqJ1tW2yBU">
    <mxGraphModel dx="2887" dy="1220" grid="1" gridSize="10" guides="1" tooltips="1" connect="1" arrows="1" fold="1" page="1" pageScale="1" pageWidth="827" pageHeight="1169" math="0" shadow="0">
      <root>
        <mxCell id="0" />
        <mxCell id="1" parent="0" />
        <mxCell id="MuskfMbHmCuyWgwmizYg-87" value="" style="rounded=0;whiteSpace=wrap;html=1;" vertex="1" parent="1">
          <mxGeometry x="-490" y="10" width="1140" height="1080" as="geometry" />
        </mxCell>
        <mxCell id="MuskfMbHmCuyWgwmizYg-85" value="" style="rounded=0;whiteSpace=wrap;html=1;fillColor=#f5f5f5;strokeColor=#666666;fontColor=#333333;" vertex="1" parent="1">
          <mxGeometry x="-360" y="44" width="960" height="70" as="geometry" />
        </mxCell>
        <mxCell id="MuskfMbHmCuyWgwmizYg-84" value="" style="rounded=0;whiteSpace=wrap;html=1;fillColor=#f8cecc;strokeColor=#b85450;" vertex="1" parent="1">
          <mxGeometry x="-360" y="580" width="960" height="450" as="geometry" />
        </mxCell>
        <mxCell id="MuskfMbHmCuyWgwmizYg-83" value="" style="rounded=0;whiteSpace=wrap;html=1;fillColor=#dae8fc;strokeColor=#6c8ebf;" vertex="1" parent="1">
          <mxGeometry x="-360" y="140" width="960" height="420" as="geometry" />
        </mxCell>
        <mxCell id="MuskfMbHmCuyWgwmizYg-5" value="业代A" style="shape=umlActor;verticalLabelPosition=bottom;verticalAlign=top;html=1;" vertex="1" parent="1">
          <mxGeometry x="-330" y="170" width="30" height="60" as="geometry" />
        </mxCell>
        <mxCell id="MuskfMbHmCuyWgwmizYg-13" value="" style="edgeStyle=orthogonalEdgeStyle;rounded=0;orthogonalLoop=1;jettySize=auto;html=1;curved=0;" edge="1" parent="1">
          <mxGeometry relative="1" as="geometry">
            <mxPoint x="95" y="192" as="sourcePoint" />
            <mxPoint x="385" y="192" as="targetPoint" />
          </mxGeometry>
        </mxCell>
        <mxCell id="MuskfMbHmCuyWgwmizYg-15" value="1.2、查询获取 CE001 活动最新执行记录" style="edgeLabel;html=1;align=center;verticalAlign=middle;resizable=0;points=[];" vertex="1" connectable="0" parent="MuskfMbHmCuyWgwmizYg-13">
          <mxGeometry x="-0.2138" y="2" relative="1" as="geometry">
            <mxPoint x="21" as="offset" />
          </mxGeometry>
        </mxCell>
        <mxCell id="MuskfMbHmCuyWgwmizYg-10" value="" style="html=1;points=[[0,0,0,0,5],[0,1,0,0,-5],[1,0,0,0,5],[1,1,0,0,-5]];perimeter=orthogonalPerimeter;outlineConnect=0;targetShapes=umlLifeline;portConstraint=eastwest;newEdgeStyle={&quot;curved&quot;:0,&quot;rounded&quot;:0};" vertex="1" parent="1">
          <mxGeometry x="85" y="170" width="10" height="80" as="geometry" />
        </mxCell>
        <mxCell id="MuskfMbHmCuyWgwmizYg-17" value="" style="edgeStyle=orthogonalEdgeStyle;rounded=0;orthogonalLoop=1;jettySize=auto;html=1;curved=0;" edge="1" parent="1">
          <mxGeometry relative="1" as="geometry">
            <mxPoint x="385" y="217" as="sourcePoint" />
            <mxPoint x="95" y="217" as="targetPoint" />
          </mxGeometry>
        </mxCell>
        <mxCell id="MuskfMbHmCuyWgwmizYg-18" value="1.3、CE001 无在最新执行记录" style="edgeLabel;html=1;align=center;verticalAlign=middle;resizable=0;points=[];" vertex="1" connectable="0" parent="MuskfMbHmCuyWgwmizYg-17">
          <mxGeometry x="0.5034" relative="1" as="geometry">
            <mxPoint x="43" as="offset" />
          </mxGeometry>
        </mxCell>
        <mxCell id="MuskfMbHmCuyWgwmizYg-12" value="" style="html=1;points=[[0,0,0,0,5],[0,1,0,0,-5],[1,0,0,0,5],[1,1,0,0,-5]];perimeter=orthogonalPerimeter;outlineConnect=0;targetShapes=umlLifeline;portConstraint=eastwest;newEdgeStyle={&quot;curved&quot;:0,&quot;rounded&quot;:0};" vertex="1" parent="1">
          <mxGeometry x="385" y="170" width="10" height="80" as="geometry" />
        </mxCell>
        <mxCell id="MuskfMbHmCuyWgwmizYg-24" value="" style="edgeStyle=orthogonalEdgeStyle;rounded=0;orthogonalLoop=1;jettySize=auto;html=1;curved=0;" edge="1" parent="1">
          <mxGeometry relative="1" as="geometry">
            <mxPoint x="95" y="392.0000000000001" as="sourcePoint" />
            <mxPoint x="385" y="392.0000000000001" as="targetPoint" />
          </mxGeometry>
        </mxCell>
        <mxCell id="MuskfMbHmCuyWgwmizYg-26" value="1.6、调用CRM接口进行执行提交" style="edgeLabel;html=1;align=center;verticalAlign=middle;resizable=0;points=[];" vertex="1" connectable="0" parent="MuskfMbHmCuyWgwmizYg-24">
          <mxGeometry x="-0.3023" y="-1" relative="1" as="geometry">
            <mxPoint x="4" as="offset" />
          </mxGeometry>
        </mxCell>
        <mxCell id="MuskfMbHmCuyWgwmizYg-38" value="" style="edgeStyle=orthogonalEdgeStyle;rounded=0;orthogonalLoop=1;jettySize=auto;html=1;curved=0;" edge="1" parent="1" source="MuskfMbHmCuyWgwmizYg-19">
          <mxGeometry relative="1" as="geometry">
            <mxPoint x="-165" y="509.9655172413793" as="targetPoint" />
            <Array as="points">
              <mxPoint x="-90" y="510" />
              <mxPoint x="-90" y="510" />
            </Array>
          </mxGeometry>
        </mxCell>
        <mxCell id="MuskfMbHmCuyWgwmizYg-39" value="1.9、完成任务执行" style="edgeLabel;html=1;align=center;verticalAlign=middle;resizable=0;points=[];" vertex="1" connectable="0" parent="MuskfMbHmCuyWgwmizYg-38">
          <mxGeometry x="0.3393" y="-2" relative="1" as="geometry">
            <mxPoint as="offset" />
          </mxGeometry>
        </mxCell>
        <mxCell id="MuskfMbHmCuyWgwmizYg-19" value="" style="html=1;points=[[0,0,0,0,5],[0,1,0,0,-5],[1,0,0,0,5],[1,1,0,0,-5]];perimeter=orthogonalPerimeter;outlineConnect=0;targetShapes=umlLifeline;portConstraint=eastwest;newEdgeStyle={&quot;curved&quot;:0,&quot;rounded&quot;:0};" vertex="1" parent="1">
          <mxGeometry x="85" y="280" width="10" height="280" as="geometry" />
        </mxCell>
        <mxCell id="MuskfMbHmCuyWgwmizYg-20" value="" style="endArrow=classic;html=1;rounded=0;" edge="1" parent="1">
          <mxGeometry width="50" height="50" relative="1" as="geometry">
            <mxPoint x="90" y="170" as="sourcePoint" />
            <mxPoint x="90" y="280" as="targetPoint" />
          </mxGeometry>
        </mxCell>
        <mxCell id="MuskfMbHmCuyWgwmizYg-22" value="1.4、SFA前端渲染（首次填写页）" style="html=1;align=left;spacingLeft=2;endArrow=block;rounded=0;edgeStyle=orthogonalEdgeStyle;curved=0;rounded=0;" edge="1" parent="1">
          <mxGeometry relative="1" as="geometry">
            <mxPoint x="95" y="290" as="sourcePoint" />
            <Array as="points">
              <mxPoint x="125" y="290" />
              <mxPoint x="125" y="340" />
            </Array>
            <mxPoint x="95" y="340" as="targetPoint" />
          </mxGeometry>
        </mxCell>
        <mxCell id="MuskfMbHmCuyWgwmizYg-35" value="" style="edgeStyle=orthogonalEdgeStyle;rounded=0;orthogonalLoop=1;jettySize=auto;html=1;curved=0;" edge="1" parent="1" source="MuskfMbHmCuyWgwmizYg-25">
          <mxGeometry relative="1" as="geometry">
            <mxPoint x="95" y="470.02857142857135" as="targetPoint" />
            <Array as="points">
              <mxPoint x="320" y="470" />
              <mxPoint x="320" y="470" />
            </Array>
          </mxGeometry>
        </mxCell>
        <mxCell id="MuskfMbHmCuyWgwmizYg-36" value="1.8、CRM存储成功" style="edgeLabel;html=1;align=center;verticalAlign=middle;resizable=0;points=[];" vertex="1" connectable="0" parent="MuskfMbHmCuyWgwmizYg-35">
          <mxGeometry x="0.6502" y="-1" relative="1" as="geometry">
            <mxPoint x="34" as="offset" />
          </mxGeometry>
        </mxCell>
        <mxCell id="MuskfMbHmCuyWgwmizYg-25" value="" style="html=1;points=[[0,0,0,0,5],[0,1,0,0,-5],[1,0,0,0,5],[1,1,0,0,-5]];perimeter=orthogonalPerimeter;outlineConnect=0;targetShapes=umlLifeline;portConstraint=eastwest;newEdgeStyle={&quot;curved&quot;:0,&quot;rounded&quot;:0};" vertex="1" parent="1">
          <mxGeometry x="385" y="370" width="10" height="120" as="geometry" />
        </mxCell>
        <mxCell id="MuskfMbHmCuyWgwmizYg-30" value="" style="edgeStyle=orthogonalEdgeStyle;rounded=0;orthogonalLoop=1;jettySize=auto;html=1;curved=0;" edge="1" parent="1">
          <mxGeometry relative="1" as="geometry">
            <mxPoint x="-165" y="365.0000000000001" as="sourcePoint" />
            <mxPoint x="85" y="364.9999999999999" as="targetPoint" />
          </mxGeometry>
        </mxCell>
        <mxCell id="MuskfMbHmCuyWgwmizYg-31" value="1.5、执行活动，填写信息，点击提交" style="edgeLabel;html=1;align=center;verticalAlign=middle;resizable=0;points=[];" vertex="1" connectable="0" parent="MuskfMbHmCuyWgwmizYg-30">
          <mxGeometry x="-0.424" relative="1" as="geometry">
            <mxPoint x="53" y="-5" as="offset" />
          </mxGeometry>
        </mxCell>
        <mxCell id="MuskfMbHmCuyWgwmizYg-48" value="" style="edgeStyle=orthogonalEdgeStyle;rounded=0;orthogonalLoop=1;jettySize=auto;html=1;curved=0;" edge="1" parent="1">
          <mxGeometry relative="1" as="geometry">
            <mxPoint x="-165" y="180" as="sourcePoint" />
            <mxPoint x="85" y="180" as="targetPoint" />
          </mxGeometry>
        </mxCell>
        <mxCell id="MuskfMbHmCuyWgwmizYg-50" value="1.1、执行社区CE活动（CE001）" style="edgeLabel;html=1;align=center;verticalAlign=middle;resizable=0;points=[];" vertex="1" connectable="0" parent="MuskfMbHmCuyWgwmizYg-48">
          <mxGeometry x="-0.0686" relative="1" as="geometry">
            <mxPoint as="offset" />
          </mxGeometry>
        </mxCell>
        <mxCell id="MuskfMbHmCuyWgwmizYg-28" value="" style="html=1;points=[[0,0,0,0,5],[0,1,0,0,-5],[1,0,0,0,5],[1,1,0,0,-5]];perimeter=orthogonalPerimeter;outlineConnect=0;targetShapes=umlLifeline;portConstraint=eastwest;newEdgeStyle={&quot;curved&quot;:0,&quot;rounded&quot;:0};" vertex="1" parent="1">
          <mxGeometry x="-175" y="170" width="10" height="390" as="geometry" />
        </mxCell>
        <mxCell id="MuskfMbHmCuyWgwmizYg-32" value="1.7、CRM进行数据校验&amp;amp;存储&lt;br&gt;&amp;lt;1&amp;gt; CE活动状态校验&lt;br&gt;&amp;lt;2&amp;gt; 剩余预算校验&lt;br&gt;&amp;lt;3&amp;gt; ..... 其他" style="html=1;align=left;spacingLeft=2;endArrow=block;rounded=0;edgeStyle=orthogonalEdgeStyle;curved=0;rounded=0;" edge="1" parent="1" target="MuskfMbHmCuyWgwmizYg-25">
          <mxGeometry relative="1" as="geometry">
            <mxPoint x="395" y="400" as="sourcePoint" />
            <Array as="points">
              <mxPoint x="425" y="400" />
              <mxPoint x="425" y="450" />
            </Array>
            <mxPoint x="395" y="450" as="targetPoint" />
          </mxGeometry>
        </mxCell>
        <mxCell id="MuskfMbHmCuyWgwmizYg-49" value="" style="endArrow=classic;html=1;rounded=0;" edge="1" parent="1" source="MuskfMbHmCuyWgwmizYg-10">
          <mxGeometry width="50" height="50" relative="1" as="geometry">
            <mxPoint x="90" y="250" as="sourcePoint" />
            <mxPoint x="90" y="170" as="targetPoint" />
          </mxGeometry>
        </mxCell>
        <mxCell id="MuskfMbHmCuyWgwmizYg-51" value="" style="shape=flexArrow;endArrow=classic;html=1;rounded=0;fillColor=#d5e8d4;strokeColor=#82b366;" edge="1" parent="1">
          <mxGeometry width="50" height="50" relative="1" as="geometry">
            <mxPoint x="-389" y="50" as="sourcePoint" />
            <mxPoint x="-389" y="1040" as="targetPoint" />
          </mxGeometry>
        </mxCell>
        <mxCell id="MuskfMbHmCuyWgwmizYg-52" value="业代B" style="shape=umlActor;verticalLabelPosition=bottom;verticalAlign=top;html=1;" vertex="1" parent="1">
          <mxGeometry x="-330" y="620" width="30" height="60" as="geometry" />
        </mxCell>
        <mxCell id="MuskfMbHmCuyWgwmizYg-56" value="" style="edgeStyle=orthogonalEdgeStyle;rounded=0;orthogonalLoop=1;jettySize=auto;html=1;curved=0;" edge="1" parent="1">
          <mxGeometry relative="1" as="geometry">
            <mxPoint x="95" y="632" as="sourcePoint" />
            <mxPoint x="385" y="632" as="targetPoint" />
          </mxGeometry>
        </mxCell>
        <mxCell id="MuskfMbHmCuyWgwmizYg-57" value="2.2、查询获取 CE001 活动最新执行记录" style="edgeLabel;html=1;align=center;verticalAlign=middle;resizable=0;points=[];" vertex="1" connectable="0" parent="MuskfMbHmCuyWgwmizYg-56">
          <mxGeometry x="-0.2138" y="2" relative="1" as="geometry">
            <mxPoint x="21" as="offset" />
          </mxGeometry>
        </mxCell>
        <mxCell id="MuskfMbHmCuyWgwmizYg-58" value="" style="html=1;points=[[0,0,0,0,5],[0,1,0,0,-5],[1,0,0,0,5],[1,1,0,0,-5]];perimeter=orthogonalPerimeter;outlineConnect=0;targetShapes=umlLifeline;portConstraint=eastwest;newEdgeStyle={&quot;curved&quot;:0,&quot;rounded&quot;:0};" vertex="1" parent="1">
          <mxGeometry x="85" y="610" width="10" height="80" as="geometry" />
        </mxCell>
        <mxCell id="MuskfMbHmCuyWgwmizYg-59" value="" style="edgeStyle=orthogonalEdgeStyle;rounded=0;orthogonalLoop=1;jettySize=auto;html=1;curved=0;" edge="1" parent="1">
          <mxGeometry relative="1" as="geometry">
            <mxPoint x="385" y="657" as="sourcePoint" />
            <mxPoint x="95" y="657" as="targetPoint" />
          </mxGeometry>
        </mxCell>
        <mxCell id="MuskfMbHmCuyWgwmizYg-60" value="2.3、CE001 返回业代A执行记录" style="edgeLabel;html=1;align=center;verticalAlign=middle;resizable=0;points=[];fontColor=#FF0000;fontStyle=1" vertex="1" connectable="0" parent="MuskfMbHmCuyWgwmizYg-59">
          <mxGeometry x="0.5034" relative="1" as="geometry">
            <mxPoint x="43" as="offset" />
          </mxGeometry>
        </mxCell>
        <mxCell id="MuskfMbHmCuyWgwmizYg-61" value="" style="html=1;points=[[0,0,0,0,5],[0,1,0,0,-5],[1,0,0,0,5],[1,1,0,0,-5]];perimeter=orthogonalPerimeter;outlineConnect=0;targetShapes=umlLifeline;portConstraint=eastwest;newEdgeStyle={&quot;curved&quot;:0,&quot;rounded&quot;:0};" vertex="1" parent="1">
          <mxGeometry x="385" y="610" width="10" height="80" as="geometry" />
        </mxCell>
        <mxCell id="MuskfMbHmCuyWgwmizYg-62" value="" style="edgeStyle=orthogonalEdgeStyle;rounded=0;orthogonalLoop=1;jettySize=auto;html=1;curved=0;" edge="1" parent="1">
          <mxGeometry relative="1" as="geometry">
            <mxPoint x="95" y="832.0000000000001" as="sourcePoint" />
            <mxPoint x="385" y="832.0000000000001" as="targetPoint" />
          </mxGeometry>
        </mxCell>
        <mxCell id="MuskfMbHmCuyWgwmizYg-63" value="2.6、调用CRM接口进行执行提交" style="edgeLabel;html=1;align=center;verticalAlign=middle;resizable=0;points=[];" vertex="1" connectable="0" parent="MuskfMbHmCuyWgwmizYg-62">
          <mxGeometry x="-0.3023" y="-1" relative="1" as="geometry">
            <mxPoint x="4" as="offset" />
          </mxGeometry>
        </mxCell>
        <mxCell id="MuskfMbHmCuyWgwmizYg-64" value="" style="edgeStyle=orthogonalEdgeStyle;rounded=0;orthogonalLoop=1;jettySize=auto;html=1;curved=0;" edge="1" parent="1" source="MuskfMbHmCuyWgwmizYg-66">
          <mxGeometry relative="1" as="geometry">
            <mxPoint x="-165" y="949.9655172413793" as="targetPoint" />
            <Array as="points">
              <mxPoint x="-90" y="950" />
              <mxPoint x="-90" y="950" />
            </Array>
          </mxGeometry>
        </mxCell>
        <mxCell id="MuskfMbHmCuyWgwmizYg-65" value="2.9、完成任务执行" style="edgeLabel;html=1;align=center;verticalAlign=middle;resizable=0;points=[];" vertex="1" connectable="0" parent="MuskfMbHmCuyWgwmizYg-64">
          <mxGeometry x="0.3393" y="-2" relative="1" as="geometry">
            <mxPoint as="offset" />
          </mxGeometry>
        </mxCell>
        <mxCell id="MuskfMbHmCuyWgwmizYg-66" value="" style="html=1;points=[[0,0,0,0,5],[0,1,0,0,-5],[1,0,0,0,5],[1,1,0,0,-5]];perimeter=orthogonalPerimeter;outlineConnect=0;targetShapes=umlLifeline;portConstraint=eastwest;newEdgeStyle={&quot;curved&quot;:0,&quot;rounded&quot;:0};" vertex="1" parent="1">
          <mxGeometry x="85" y="720" width="10" height="280" as="geometry" />
        </mxCell>
        <mxCell id="MuskfMbHmCuyWgwmizYg-67" value="" style="endArrow=classic;html=1;rounded=0;" edge="1" parent="1">
          <mxGeometry width="50" height="50" relative="1" as="geometry">
            <mxPoint x="90" y="610" as="sourcePoint" />
            <mxPoint x="90" y="720" as="targetPoint" />
          </mxGeometry>
        </mxCell>
        <mxCell id="MuskfMbHmCuyWgwmizYg-68" value="2.4、SFA前端渲染（将A执行记录渲染到页面）" style="html=1;align=left;spacingLeft=2;endArrow=block;rounded=0;edgeStyle=orthogonalEdgeStyle;curved=0;rounded=0;fontColor=#FF0000;fontStyle=1" edge="1" parent="1">
          <mxGeometry relative="1" as="geometry">
            <mxPoint x="95" y="730" as="sourcePoint" />
            <Array as="points">
              <mxPoint x="125" y="730" />
              <mxPoint x="125" y="780" />
            </Array>
            <mxPoint x="95" y="780" as="targetPoint" />
          </mxGeometry>
        </mxCell>
        <mxCell id="MuskfMbHmCuyWgwmizYg-69" value="" style="edgeStyle=orthogonalEdgeStyle;rounded=0;orthogonalLoop=1;jettySize=auto;html=1;curved=0;" edge="1" parent="1" source="MuskfMbHmCuyWgwmizYg-71">
          <mxGeometry relative="1" as="geometry">
            <mxPoint x="95" y="910.0285714285714" as="targetPoint" />
            <Array as="points">
              <mxPoint x="320" y="910" />
              <mxPoint x="320" y="910" />
            </Array>
          </mxGeometry>
        </mxCell>
        <mxCell id="MuskfMbHmCuyWgwmizYg-70" value="2.8、CRM存储成功" style="edgeLabel;html=1;align=center;verticalAlign=middle;resizable=0;points=[];" vertex="1" connectable="0" parent="MuskfMbHmCuyWgwmizYg-69">
          <mxGeometry x="0.6502" y="-1" relative="1" as="geometry">
            <mxPoint x="34" as="offset" />
          </mxGeometry>
        </mxCell>
        <mxCell id="MuskfMbHmCuyWgwmizYg-71" value="" style="html=1;points=[[0,0,0,0,5],[0,1,0,0,-5],[1,0,0,0,5],[1,1,0,0,-5]];perimeter=orthogonalPerimeter;outlineConnect=0;targetShapes=umlLifeline;portConstraint=eastwest;newEdgeStyle={&quot;curved&quot;:0,&quot;rounded&quot;:0};" vertex="1" parent="1">
          <mxGeometry x="385" y="810" width="10" height="120" as="geometry" />
        </mxCell>
        <mxCell id="MuskfMbHmCuyWgwmizYg-72" value="" style="edgeStyle=orthogonalEdgeStyle;rounded=0;orthogonalLoop=1;jettySize=auto;html=1;curved=0;" edge="1" parent="1">
          <mxGeometry relative="1" as="geometry">
            <mxPoint x="-165" y="805.0000000000001" as="sourcePoint" />
            <mxPoint x="85" y="804.9999999999999" as="targetPoint" />
          </mxGeometry>
        </mxCell>
        <mxCell id="MuskfMbHmCuyWgwmizYg-73" value="2.5、基于渲染页面，调整内容，&lt;br&gt;追加图片，点击提交" style="edgeLabel;html=1;align=center;verticalAlign=middle;resizable=0;points=[];fontColor=#FF0000;fontStyle=1" vertex="1" connectable="0" parent="MuskfMbHmCuyWgwmizYg-72">
          <mxGeometry x="-0.424" relative="1" as="geometry">
            <mxPoint x="53" y="-5" as="offset" />
          </mxGeometry>
        </mxCell>
        <mxCell id="MuskfMbHmCuyWgwmizYg-74" value="" style="edgeStyle=orthogonalEdgeStyle;rounded=0;orthogonalLoop=1;jettySize=auto;html=1;curved=0;" edge="1" parent="1">
          <mxGeometry relative="1" as="geometry">
            <mxPoint x="-165" y="620" as="sourcePoint" />
            <mxPoint x="85" y="620" as="targetPoint" />
          </mxGeometry>
        </mxCell>
        <mxCell id="MuskfMbHmCuyWgwmizYg-75" value="2.1、执行社区CE活动（CE001）" style="edgeLabel;html=1;align=center;verticalAlign=middle;resizable=0;points=[];" vertex="1" connectable="0" parent="MuskfMbHmCuyWgwmizYg-74">
          <mxGeometry x="-0.0686" relative="1" as="geometry">
            <mxPoint as="offset" />
          </mxGeometry>
        </mxCell>
        <mxCell id="MuskfMbHmCuyWgwmizYg-76" value="" style="html=1;points=[[0,0,0,0,5],[0,1,0,0,-5],[1,0,0,0,5],[1,1,0,0,-5]];perimeter=orthogonalPerimeter;outlineConnect=0;targetShapes=umlLifeline;portConstraint=eastwest;newEdgeStyle={&quot;curved&quot;:0,&quot;rounded&quot;:0};" vertex="1" parent="1">
          <mxGeometry x="-175" y="610" width="10" height="390" as="geometry" />
        </mxCell>
        <mxCell id="MuskfMbHmCuyWgwmizYg-77" value="2.7、CRM进行数据校验&amp;amp;存储&lt;br&gt;&amp;lt;1&amp;gt; CE活动状态校验&lt;br&gt;&amp;lt;2&amp;gt; 剩余预算校验&lt;br&gt;&amp;lt;3&amp;gt; ..... 其他" style="html=1;align=left;spacingLeft=2;endArrow=block;rounded=0;edgeStyle=orthogonalEdgeStyle;curved=0;rounded=0;" edge="1" parent="1" target="MuskfMbHmCuyWgwmizYg-71">
          <mxGeometry relative="1" as="geometry">
            <mxPoint x="395" y="840" as="sourcePoint" />
            <Array as="points">
              <mxPoint x="425" y="840" />
              <mxPoint x="425" y="890" />
            </Array>
            <mxPoint x="395" y="890" as="targetPoint" />
          </mxGeometry>
        </mxCell>
        <mxCell id="MuskfMbHmCuyWgwmizYg-78" value="" style="endArrow=classic;html=1;rounded=0;" edge="1" parent="1" source="MuskfMbHmCuyWgwmizYg-58">
          <mxGeometry width="50" height="50" relative="1" as="geometry">
            <mxPoint x="90" y="690" as="sourcePoint" />
            <mxPoint x="90" y="610" as="targetPoint" />
          </mxGeometry>
        </mxCell>
        <mxCell id="MuskfMbHmCuyWgwmizYg-80" value="&lt;font style=&quot;font-size: 39px;&quot;&gt;时&lt;br&gt;间&lt;br&gt;线&lt;/font&gt;" style="text;html=1;align=center;verticalAlign=middle;whiteSpace=wrap;rounded=0;" vertex="1" parent="1">
          <mxGeometry x="-460" y="505" width="60" height="160" as="geometry" />
        </mxCell>
        <mxCell id="MuskfMbHmCuyWgwmizYg-86" value="" style="group" vertex="1" connectable="0" parent="1">
          <mxGeometry x="-220" y="60" width="660" height="970" as="geometry" />
        </mxCell>
        <mxCell id="MuskfMbHmCuyWgwmizYg-2" value="SFA" style="shape=umlLifeline;perimeter=lifelinePerimeter;whiteSpace=wrap;html=1;container=1;dropTarget=0;collapsible=0;recursiveResize=0;outlineConnect=0;portConstraint=eastwest;newEdgeStyle={&quot;curved&quot;:0,&quot;rounded&quot;:0};fontSize=17;movable=1;resizable=1;rotatable=1;deletable=1;editable=1;locked=0;connectable=1;" vertex="1" parent="MuskfMbHmCuyWgwmizYg-86">
          <mxGeometry x="260" width="100" height="961.3392857142857" as="geometry" />
        </mxCell>
        <mxCell id="MuskfMbHmCuyWgwmizYg-3" value="CRM" style="shape=umlLifeline;perimeter=lifelinePerimeter;whiteSpace=wrap;html=1;container=1;dropTarget=0;collapsible=0;recursiveResize=0;outlineConnect=0;portConstraint=eastwest;newEdgeStyle={&quot;curved&quot;:0,&quot;rounded&quot;:0};fontSize=17;movable=1;resizable=1;rotatable=1;deletable=1;editable=1;locked=0;connectable=1;" vertex="1" parent="MuskfMbHmCuyWgwmizYg-86">
          <mxGeometry x="560" width="100" height="961.3392857142857" as="geometry" />
        </mxCell>
        <mxCell id="MuskfMbHmCuyWgwmizYg-27" value="执行人" style="shape=umlLifeline;perimeter=lifelinePerimeter;whiteSpace=wrap;html=1;container=1;dropTarget=0;collapsible=0;recursiveResize=0;outlineConnect=0;portConstraint=eastwest;newEdgeStyle={&quot;curved&quot;:0,&quot;rounded&quot;:0};movable=1;resizable=1;rotatable=1;deletable=1;editable=1;locked=0;connectable=1;" vertex="1" parent="MuskfMbHmCuyWgwmizYg-86">
          <mxGeometry width="100" height="970" as="geometry" />
        </mxCell>
      </root>
    </mxGraphModel>
  </diagram>
</mxfile>
